<?xml version="1.0" standalone="no"?><!DOCTYPE svg PUBLIC "-//W3C//DTD SVG 1.1//EN" "http://www.w3.org/Graphics/SVG/1.1/DTD/svg11.dtd"><svg height="1200" legacy-metrics="false" node-id="1" sillyvg="true" template-height="1200" template-width="1200" version="1.1" viewBox="0 0 1200 1200" width="1200" xmlns="http://www.w3.org/2000/svg" xmlns:xlink="http://www.w3.org/1999/xlink"><defs node-id="44"></defs><g node-id="121"><path d="M 0.00 0.00 L 1200.00 0.00 L 1200.00 1200.00 L 0.00 1200.00 Z" fill="#256ae5" fill-rule="nonzero" group-id="1" node-id="47" stroke="none" target-height="1200" target-width="1200" target-x="0" target-y="0"></path></g><g node-id="122"><path d="M 956.61 642.00 L 956.61 1200.00 L 243.39 1200.00 L 243.39 642.00 C 243.39 484.27 345.80 350.45 487.75 303.42 C 523.96 291.45 561.86 285.37 600.00 285.42 C 603.71 285.42 607.41 285.48 611.08 285.60 C 612.69 285.60 614.30 285.70 615.90 285.77 C 806.47 294.28 956.59 451.24 956.61 642.00 Z" fill="#b77d7d" fill-rule="nonzero" group-id="2" node-id="51" stroke="none" target-height="914.57996" target-width="713.22" target-x="243.39" target-y="285.42"></path><path d="M 863.68 642.00 L 863.68 1200.00 L 243.39 1200.00 L 243.39 642.00 C 243.39 460.81 378.54 311.17 553.54 288.40 C 728.53 311.18 863.68 460.82 863.68 642.00 Z" fill="#ba8a88" fill-rule="nonzero" group-id="2" node-id="53" stroke="none" target-height="911.6" target-width="620.29" target-x="243.39" target-y="288.4"></path><path d="M 346.54 518.20 C 340.14 518.20 334.21 514.79 330.99 509.26 C 327.77 503.72 327.73 496.89 330.89 491.32 C 368.39 424.95 429.09 374.78 501.33 350.45 C 510.75 347.28 520.96 352.34 524.13 361.77 C 527.31 371.19 522.24 381.40 512.82 384.57 C 448.98 406.07 395.35 450.41 362.22 509.06 C 359.02 514.71 353.03 518.20 346.54 518.20 Z" fill="#d3a3a3" fill-rule="nonzero" group-id="2" node-id="55" stroke="none" target-height="168.6919" target-width="196.52942" target-x="328.54742" target-y="349.50812"></path><path d="M 743.10 326.10 C 743.10 355.59 724.62 381.92 696.88 391.94 C 669.15 401.96 638.11 393.52 619.26 370.84 C 617.18 368.32 615.27 365.67 613.55 362.89 C 594.84 393.25 556.29 404.69 524.05 389.45 C 491.81 374.21 476.17 337.17 487.75 303.44 C 523.96 291.47 561.86 285.39 600.00 285.44 C 603.71 285.44 607.41 285.50 611.08 285.62 C 611.95 286.83 612.77 288.07 613.55 289.34 C 614.30 288.13 615.08 286.95 615.90 285.79 C 659.44 287.66 702.25 297.53 742.21 314.92 C 742.80 318.62 743.10 322.36 743.10 326.10 Z" fill="#b77d7d" fill-rule="nonzero" group-id="2" node-id="57" stroke="none" target-height="110.7301" target-width="259.11487" target-x="483.9851" target-y="285.44"></path><path d="M 318.31 1181.90 C 308.37 1181.90 300.31 1173.84 300.31 1163.90 L 300.31 672.44 C 300.31 662.50 308.37 654.44 318.31 654.44 C 328.25 654.44 336.31 662.50 336.31 672.44 L 336.31 1163.90 C 336.31 1173.84 328.25 1181.90 318.31 1181.90 Z" fill="#d3a3a3" fill-rule="nonzero" group-id="2" node-id="59" stroke="none" target-height="527.46" target-width="36" target-x="300.31" target-y="654.44"></path><path d="M 318.31 623.13 C 308.37 623.13 300.31 615.07 300.31 605.13 L 300.31 602.87 C 300.31 592.93 308.37 584.87 318.31 584.87 C 328.25 584.87 336.31 592.93 336.31 602.87 L 336.31 605.13 C 336.31 615.07 328.25 623.13 318.31 623.13 Z" fill="#d3a3a3" fill-rule="nonzero" group-id="2" node-id="61" stroke="none" target-height="38.26001" target-width="36" target-x="300.31" target-y="584.87"></path><path d="M 839.96 584.75 C 839.96 649.50 787.47 701.99 722.72 701.99 C 657.97 701.99 605.48 649.50 605.48 584.75 C 605.48 520.00 657.97 467.51 722.72 467.51 C 787.47 467.51 839.96 520.00 839.96 584.75 Z" fill="#ffffff" fill-rule="nonzero" group-id="2" node-id="63" stroke="none" target-height="234.47998" target-width="234.48004" target-x="605.48" target-y="467.51"></path><path d="M 594.52 584.75 C 594.52 649.50 542.03 701.99 477.28 701.99 C 412.53 701.99 360.04 649.50 360.04 584.75 C 360.04 520.00 412.53 467.51 477.28 467.51 C 542.03 467.51 594.52 520.00 594.52 584.75 Z" fill="#ffffff" fill-rule="nonzero" group-id="2" node-id="65" stroke="none" target-height="234.47998" target-width="234.48001" target-x="360.04" target-y="467.51"></path><path d="M 507.08 600.00 C 507.08 616.46 493.74 629.80 477.28 629.80 C 460.82 629.80 447.48 616.46 447.48 600.00 C 447.48 583.54 460.82 570.20 477.28 570.20 C 493.74 570.20 507.08 583.54 507.08 600.00 Z" fill="#282828" fill-rule="nonzero" group-id="2" node-id="67" stroke="none" target-height="59.599976" target-width="59.599976" target-x="447.48" target-y="570.2"></path><path d="M 752.52 600.00 C 752.52 616.46 739.18 629.80 722.72 629.80 C 706.26 629.80 692.92 616.46 692.92 600.00 C 692.92 583.54 706.26 570.20 722.72 570.20 C 739.18 570.20 752.52 583.54 752.52 600.00 Z" fill="#282828" fill-rule="nonzero" group-id="2" node-id="69" stroke="none" target-height="59.599976" target-width="59.600037" target-x="692.92" target-y="570.2"></path><path d="M 670.28 235.63 L 670.28 307.11 C 670.28 313.74 664.91 319.11 658.28 319.11 L 541.72 319.11 C 535.66 319.11 530.55 314.59 529.81 308.57 C 529.75 308.09 529.72 307.60 529.72 307.11 L 529.72 235.63 C 529.84 196.86 561.23 165.47 600.00 165.35 C 610.90 165.34 621.66 167.90 631.39 172.81 C 655.15 184.76 670.18 209.04 670.28 235.63 Z" fill="#e0284c" fill-rule="nonzero" group-id="2" node-id="71" stroke="none" target-height="153.75998" target-width="140.56006" target-x="529.72" target-y="165.35"></path><path d="M 654.85 225.09 L 654.85 296.57 C 654.85 303.20 649.48 308.57 642.85 308.57 L 529.85 308.57 C 529.79 308.09 529.76 307.60 529.76 307.11 L 529.76 235.63 C 529.88 196.88 561.25 165.49 600.00 165.35 C 610.90 165.34 621.66 167.90 631.39 172.81 C 632.39 173.66 633.29 174.55 634.20 175.46 C 647.41 188.60 654.85 206.46 654.85 225.09 Z" fill="#ef435d" fill-rule="nonzero" group-id="2" node-id="73" stroke="none" target-height="143.22" target-width="125.089966" target-x="529.76" target-y="165.35"></path><path d="M 610.45 313.11 C 610.45 347.16 585.95 376.27 552.40 382.08 C 518.85 387.89 485.98 368.72 474.53 336.65 C 463.08 304.59 476.36 268.93 506.00 252.17 C 535.64 235.41 573.04 242.42 594.61 268.76 C 604.85 281.27 610.45 296.94 610.45 313.11 Z" fill="#e0284c" fill-rule="nonzero" group-id="2" node-id="75" stroke="none" target-height="140.00143" target-width="140.00418" target-x="470.44583" target-y="243.11023"></path><path d="M 599.72 295.00 C 599.72 324.59 581.12 350.98 553.26 360.93 C 525.40 370.88 494.29 362.24 475.55 339.34 C 462.54 307.26 474.93 270.48 504.70 252.82 C 534.48 235.16 572.70 241.92 594.61 268.72 C 598.00 277.07 599.73 285.99 599.72 295.00 Z" fill="#ef435d" fill-rule="nonzero" group-id="2" node-id="77" stroke="none" target-height="121.95038" target-width="129.2926" target-x="470.42737" target-y="243.02142"></path><path d="M 729.55 313.11 C 729.55 344.87 708.15 372.65 677.44 380.77 C 646.74 388.89 614.41 375.32 598.70 347.71 C 583.00 320.10 587.85 285.37 610.53 263.13 C 633.21 240.89 668.02 236.70 695.32 252.93 C 716.55 265.55 729.55 288.42 729.55 313.11 Z" fill="#e0284c" fill-rule="nonzero" group-id="2" node-id="79" stroke="none" target-height="139.95885" target-width="139.98486" target-x="589.5651" target-y="243.15169"></path><path d="M 711.48 297.67 C 711.48 322.84 697.97 346.07 676.10 358.52 C 654.22 370.97 627.35 370.71 605.71 357.85 C 583.91 331.64 584.16 293.55 606.30 267.63 C 628.44 241.71 666.03 235.50 695.32 252.93 C 705.78 265.49 711.50 281.32 711.48 297.67 Z" fill="#ef435d" fill-rule="nonzero" group-id="2" node-id="81" stroke="none" target-height="124.59042" target-width="121.951416" target-x="589.52856" target-y="243.08575"></path><path d="M 648.80 851.82 L 595.80 1044.96 C 589.84 1066.77 572.70 1083.75 550.82 1089.48 C 528.95 1095.22 505.68 1088.84 489.79 1072.75 C 473.90 1056.67 467.80 1033.32 473.80 1011.52 L 526.80 818.37 L 634.92 848.00 Z" fill="#e0284c" fill-rule="nonzero" group-id="2" node-id="83" stroke="none" target-height="273.18518" target-width="177.27185" target-x="471.52814" target-y="818.37"></path><path d="M 634.92 848.00 L 586.85 1023.31 C 580.27 1047.29 560.25 1065.19 535.68 1069.06 C 511.12 1072.92 486.56 1062.03 472.94 1041.23 C 470.86 1031.39 471.17 1021.20 473.85 1011.51 L 526.80 818.37 Z" fill="#ef435d" fill-rule="nonzero" group-id="2" node-id="85" stroke="none" target-height="251.41675" target-width="163.31046" target-x="471.60953" target-y="818.37"></path><path d="M 681.88 1089.24 C 650.66 1097.79 618.03 1081.39 606.25 1051.24 L 606.25 1051.24 C 605.45 1049.17 604.75 1047.07 604.17 1044.93 L 551.17 851.79 L 663.63 821.00 L 673.20 818.38 L 726.15 1011.53 C 735.38 1045.21 715.56 1080.00 681.88 1089.24 Z" fill="#e0284c" fill-rule="nonzero" group-id="2" node-id="87" stroke="none" target-height="273.11853" target-width="177.23016" target-x="551.17" target-y="818.38"></path><path d="M 664.94 1065.00 C 644.32 1070.67 622.24 1065.53 606.25 1051.33 L 606.25 1051.33 C 605.45 1049.26 604.75 1047.16 604.17 1045.02 L 551.17 851.88 L 663.63 821.00 L 709.21 987.24 C 713.66 1003.42 711.49 1020.71 703.19 1035.29 C 694.89 1049.88 681.13 1060.57 664.94 1065.00 Z" fill="#ef435d" fill-rule="nonzero" group-id="2" node-id="89" stroke="none" target-height="246.25757" target-width="160.3023" target-x="551.17" target-y="821"></path><path d="M 600.00 716.10 L 499.19 809.97 L 700.81 809.97 L 600.00 716.10 Z" fill="#f4c914" fill-rule="nonzero" group-id="2" node-id="91" stroke="none" target-height="93.869995" target-width="201.62" target-x="499.19" target-y="716.1"></path><path d="M 600.00 716.10 L 600.00 809.97 L 700.81 809.97 L 600.00 716.10 Z" fill="#e5bb0a" fill-rule="nonzero" group-id="2" node-id="93" stroke="none" target-height="93.869995" target-width="100.81" target-x="600" target-y="716.1"></path><path d="M 600.00 882.10 L 700.81 809.97 L 499.19 809.97 L 600.00 882.10 Z" fill="#f2a916" fill-rule="nonzero" group-id="2" node-id="95" stroke="none" target-height="72.130005" target-width="201.62" target-x="499.19" target-y="809.97"></path><path d="M 558.00 794.93 C 555.04 794.93 552.36 793.19 551.15 790.49 C 549.95 787.78 550.44 784.62 552.42 782.42 L 566.56 766.68 C 568.31 764.54 571.09 763.54 573.80 764.07 C 576.51 764.59 578.71 766.57 579.53 769.20 C 580.35 771.84 579.65 774.71 577.72 776.68 L 563.60 792.44 C 562.17 794.03 560.14 794.94 558.00 794.93 Z" fill="#282828" fill-rule="nonzero" group-id="2" node-id="97" stroke="none" target-height="30.976807" target-width="29.30017" target-x="550.5619" target-y="763.9532"></path><path d="M 642.00 794.93 C 639.87 794.93 637.84 794.03 636.42 792.44 L 622.26 776.70 C 619.72 773.60 620.07 769.04 623.06 766.37 C 626.05 763.69 630.61 763.84 633.42 766.70 L 647.56 782.44 C 649.52 784.64 650.01 787.79 648.81 790.48 C 647.61 793.17 644.95 794.91 642.00 794.93 Z" fill="#282828" fill-rule="nonzero" group-id="2" node-id="99" stroke="none" target-height="30.475159" target-width="28.812683" target-x="620.5873" target-y="764.45483"></path><path d="M 592.54 1002.57 L 600.00 882.10 L 600.00 1029.79 L 592.54 1002.57 Z" fill="#e0284c" fill-rule="nonzero" group-id="2" node-id="101" stroke="none" target-height="147.69006" target-width="7.460022" target-x="592.54" target-y="882.1"></path><path d="M 592.29 198.64 C 592.29 206.52 585.90 212.91 578.02 212.91 C 570.14 212.91 563.75 206.52 563.75 198.64 C 563.75 190.76 570.14 184.37 578.02 184.37 C 585.90 184.37 592.29 190.76 592.29 198.64 Z" fill="#f9708b" fill-rule="nonzero" group-id="2" node-id="103" stroke="none" target-height="28.540009" target-width="28.539978" target-x="563.75" target-y="184.37"></path><path d="M 529.26 279.95 C 529.26 289.26 521.72 296.80 512.41 296.80 C 503.10 296.80 495.56 289.26 495.56 279.95 C 495.56 270.64 503.10 263.10 512.41 263.10 C 521.72 263.10 529.26 270.64 529.26 279.95 Z" fill="#f9708b" fill-rule="nonzero" group-id="2" node-id="105" stroke="none" target-height="33.69998" target-width="33.700012" target-x="495.56" target-y="263.1"></path><path d="M 651.64 279.95 C 651.64 289.26 644.10 296.80 634.79 296.80 C 625.48 296.80 617.94 289.26 617.94 279.95 C 617.94 270.64 625.48 263.10 634.79 263.10 C 644.10 263.10 651.64 270.64 651.64 279.95 Z" fill="#f9708b" fill-rule="nonzero" group-id="2" node-id="107" stroke="none" target-height="33.69998" target-width="33.700012" target-x="617.94" target-y="263.1"></path><path d="M 800.08 1018.75 C 790.14 1018.75 782.08 1010.69 782.08 1000.75 L 782.08 834.00 C 782.08 824.06 790.14 816.00 800.08 816.00 C 810.02 816.00 818.08 824.06 818.08 834.00 L 818.08 1000.74 C 818.08 1005.52 816.19 1010.10 812.81 1013.47 C 809.44 1016.85 804.86 1018.75 800.08 1018.75 Z" fill="#b77d7d" fill-rule="nonzero" group-id="2" node-id="109" stroke="none" target-height="202.75" target-width="36" target-x="782.08" target-y="816"></path><path d="M 800.08 1132.25 C 790.14 1132.25 782.08 1124.19 782.08 1114.25 L 782.08 1091.50 C 782.08 1081.56 790.14 1073.50 800.08 1073.50 C 810.02 1073.50 818.08 1081.56 818.08 1091.50 L 818.08 1114.25 C 818.08 1124.19 810.02 1132.25 800.08 1132.25 Z" fill="#b77d7d" fill-rule="nonzero" group-id="2" node-id="111" stroke="none" target-height="58.75" target-width="36" target-x="782.08" target-y="1073.5"></path><path d="M 426.81 862.80 C 414.11 862.80 403.81 852.50 403.81 839.80 L 403.81 763.00 C 403.81 750.30 414.11 740.00 426.81 740.00 C 439.51 740.00 449.81 750.30 449.81 763.00 L 449.81 839.80 C 449.81 852.50 439.51 862.80 426.81 862.80 Z" fill="#d3a3a3" fill-rule="nonzero" group-id="2" node-id="113" stroke="none" target-height="122.79999" target-width="46" target-x="403.81" target-y="740"></path><path d="M 426.81 999.46 C 414.11 999.46 403.81 989.16 403.81 976.46 L 403.81 966.30 C 403.81 953.60 414.11 943.30 426.81 943.30 C 439.51 943.30 449.81 953.60 449.81 966.30 L 449.81 976.46 C 449.81 989.16 439.51 999.46 426.81 999.46 Z" fill="#d3a3a3" fill-rule="nonzero" group-id="2" node-id="115" stroke="none" target-height="56.160034" target-width="46" target-x="403.81" target-y="943.3"></path><path d="M 426.81 1147.42 C 414.11 1147.42 403.81 1137.12 403.81 1124.42 L 403.81 1067.22 C 403.81 1054.52 414.11 1044.22 426.81 1044.22 C 439.51 1044.22 449.81 1054.52 449.81 1067.22 L 449.81 1124.42 C 449.81 1137.12 439.51 1147.42 426.81 1147.42 Z" fill="#d3a3a3" fill-rule="nonzero" group-id="2" node-id="117" stroke="none" target-height="103.20007" target-width="46" target-x="403.81" target-y="1044.22"></path><path d="M 600.00 809.97 L 600.00 882.10 L 700.81 809.97 L 600.00 809.97 Z" fill="#d88e0b" fill-rule="nonzero" group-id="2" node-id="119" stroke="none" target-height="72.130005" target-width="100.81" target-x="600" target-y="809.97"></path></g></svg>