<?xml version="1.0" standalone="no"?><!DOCTYPE svg PUBLIC "-//W3C//DTD SVG 1.1//EN" "http://www.w3.org/Graphics/SVG/1.1/DTD/svg11.dtd"><svg height="1200" legacy-metrics="false" node-id="1" sillyvg="true" template-height="1200" template-width="1200" version="1.1" viewBox="0 0 1200 1200" width="1200" xmlns="http://www.w3.org/2000/svg" xmlns:xlink="http://www.w3.org/1999/xlink"><defs node-id="48"></defs><g node-id="133"><path d="M 0.00 0.00 L 1200.00 0.00 L 1200.00 1200.00 L 0.00 1200.00 Z" fill="#256ae5" fill-rule="nonzero" group-id="1" node-id="51" stroke="none" target-height="1200" target-width="1200" target-x="0" target-y="0"></path></g><g node-id="134"><path d="M 600.00 285.41 L 600.00 285.41 C 796.94 285.41 956.60 445.06 956.61 642.00 L 956.61 1200.00 L 956.61 1200.00 L 243.39 1200.00 L 243.39 1200.00 L 243.39 642.00 C 243.40 445.06 403.06 285.41 600.00 285.41 Z" fill="#06bcb7" fill-rule="nonzero" group-id="2" node-id="55" stroke="none" target-height="914.58997" target-width="713.22" target-x="243.39" target-y="285.41"></path><path d="M 863.68 642.00 L 863.68 1200.00 L 243.39 1200.00 L 243.39 642.00 C 243.39 460.81 378.54 311.17 553.54 288.40 C 728.53 311.18 863.68 460.82 863.68 642.00 Z" fill="#07d6d6" fill-rule="nonzero" group-id="2" node-id="57" stroke="none" target-height="911.6" target-width="620.29" target-x="243.39" target-y="288.4"></path><path d="M 480.06 396.15 C 471.58 396.16 464.25 390.24 462.45 381.95 C 460.66 373.66 464.90 365.25 472.63 361.75 C 481.97 357.52 491.63 353.75 501.33 350.45 C 510.75 347.28 520.96 352.34 524.14 361.76 C 527.31 371.19 522.24 381.40 512.82 384.57 C 504.21 387.48 495.75 390.81 487.48 394.57 C 485.15 395.62 482.62 396.16 480.06 396.15 Z" fill="#38f9f4" fill-rule="nonzero" group-id="2" node-id="59" stroke="none" target-height="46.641876" target-width="62.997437" target-x="462.0794" target-y="349.50812"></path><path d="M 346.54 518.20 C 340.14 518.20 334.21 514.79 330.99 509.26 C 327.77 503.72 327.73 496.89 330.89 491.32 C 341.59 472.44 354.24 454.74 368.63 438.50 C 375.22 431.06 386.60 430.37 394.04 436.97 C 401.49 443.56 402.17 454.94 395.58 462.38 C 382.86 476.73 371.68 492.38 362.22 509.06 C 359.02 514.71 353.03 518.20 346.54 518.20 Z" fill="#38f9f4" fill-rule="nonzero" group-id="2" node-id="61" stroke="none" target-height="85.75812" target-width="71.555664" target-x="328.54742" target-y="432.4419"></path><path d="M 318.31 1181.90 C 308.37 1181.90 300.31 1173.84 300.31 1163.90 L 300.31 672.44 C 300.31 662.50 308.37 654.44 318.31 654.44 C 328.25 654.44 336.31 662.50 336.31 672.44 L 336.31 1163.90 C 336.31 1173.84 328.25 1181.90 318.31 1181.90 Z" fill="#38f9f4" fill-rule="nonzero" group-id="2" node-id="63" stroke="none" target-height="527.46" target-width="36" target-x="300.31" target-y="654.44"></path><path d="M 544.72 817.24 L 655.27 817.24 C 661.90 817.24 667.27 822.61 667.27 829.24 L 667.27 852.53 C 667.27 859.16 661.90 864.53 655.27 864.53 L 544.72 864.53 C 538.09 864.53 532.72 859.16 532.72 852.53 L 532.72 829.24 C 532.72 822.61 538.09 817.24 544.72 817.24 Z" fill="#282828" fill-rule="nonzero" group-id="2" node-id="65" stroke="none" target-height="47.29004" target-width="134.55005" target-x="532.72" target-y="817.24"></path><path d="M 306.00 1078.05 C 252.24 1078.06 204.03 1044.97 184.72 994.80 C 182.79 989.66 185.37 983.92 190.50 981.95 C 195.63 979.98 201.38 982.52 203.39 987.63 C 225.10 1044.20 288.57 1072.46 345.14 1050.75 C 401.71 1029.04 429.97 965.57 408.26 909.00 C 395.03 874.53 403.59 835.49 430.03 809.71 C 456.46 783.93 495.70 776.35 529.83 790.44 C 533.22 791.74 535.65 794.78 536.16 798.38 C 536.67 801.98 535.18 805.57 532.28 807.76 C 529.38 809.95 525.52 810.39 522.20 808.92 C 495.45 797.88 464.70 803.83 443.98 824.03 C 423.27 844.24 416.56 874.83 426.93 901.85 C 452.56 968.63 419.08 1043.80 352.30 1069.43 C 337.53 1075.12 321.83 1078.04 306.00 1078.05 Z" fill="#282828" fill-rule="nonzero" group-id="2" node-id="67" stroke="none" target-height="294.57214" target-width="352.16946" target-x="184.07639" target-y="783.4779"></path><path d="M 894.00 1078.05 C 878.16 1078.05 862.45 1075.12 847.67 1069.43 C 780.89 1043.80 747.41 968.63 773.04 901.85 C 783.41 874.83 776.70 844.24 755.99 824.03 C 735.27 803.83 704.52 797.88 677.77 808.92 C 674.45 810.39 670.59 809.95 667.69 807.76 C 664.79 805.57 663.30 801.98 663.81 798.38 C 664.32 794.78 666.75 791.74 670.14 790.44 C 704.27 776.34 743.53 783.91 769.97 809.69 C 796.42 835.47 804.97 874.52 791.74 909.00 C 777.35 945.67 783.73 987.24 808.45 1017.92 C 833.17 1048.59 872.44 1063.66 911.33 1057.39 C 950.22 1051.13 982.77 1024.49 996.61 987.61 C 998.62 982.50 1004.37 979.96 1009.50 981.93 C 1014.63 983.90 1017.21 989.64 1015.28 994.78 C 995.97 1044.95 947.76 1078.05 894.00 1078.05 Z" fill="#282828" fill-rule="nonzero" group-id="2" node-id="69" stroke="none" target-height="294.58618" target-width="352.19934" target-x="663.72424" target-y="783.46387"></path><path d="M 839.96 584.75 C 839.96 649.50 787.47 701.99 722.72 701.99 C 657.97 701.99 605.48 649.50 605.48 584.75 C 605.48 520.00 657.97 467.51 722.72 467.51 C 787.47 467.51 839.96 520.00 839.96 584.75 Z" fill="#ffffff" fill-rule="nonzero" group-id="2" node-id="71" stroke="none" target-height="234.47998" target-width="234.48004" target-x="605.48" target-y="467.51"></path><path d="M 594.52 584.75 C 594.52 649.50 542.03 701.99 477.28 701.99 C 412.53 701.99 360.04 649.50 360.04 584.75 C 360.04 520.00 412.53 467.51 477.28 467.51 C 542.03 467.51 594.52 520.00 594.52 584.75 Z" fill="#ffffff" fill-rule="nonzero" group-id="2" node-id="73" stroke="none" target-height="234.47998" target-width="234.48001" target-x="360.04" target-y="467.51"></path><path d="M 507.08 600.00 C 507.08 616.46 493.74 629.80 477.28 629.80 C 460.82 629.80 447.48 616.46 447.48 600.00 C 447.48 583.54 460.82 570.20 477.28 570.20 C 493.74 570.20 507.08 583.54 507.08 600.00 Z" fill="#282828" fill-rule="nonzero" group-id="2" node-id="75" stroke="none" target-height="59.599976" target-width="59.599976" target-x="447.48" target-y="570.2"></path><path d="M 752.52 600.00 C 752.52 616.46 739.18 629.80 722.72 629.80 C 706.26 629.80 692.92 616.46 692.92 600.00 C 692.92 583.54 706.26 570.20 722.72 570.20 C 739.18 570.20 752.52 583.54 752.52 600.00 Z" fill="#282828" fill-rule="nonzero" group-id="2" node-id="77" stroke="none" target-height="59.599976" target-width="59.600037" target-x="692.92" target-y="570.2"></path><path d="M 458.49 155.48 C 458.49 161.15 457.30 166.76 455.00 171.94 L 432.51 222.44 L 413.51 265.01 C 404.41 285.44 380.47 294.63 360.03 285.54 C 339.60 276.44 330.41 252.49 339.51 232.06 L 356.22 194.53 L 376.22 149.59 L 381.00 139.00 C 388.78 121.52 407.72 111.87 426.43 115.86 C 445.14 119.84 458.51 136.37 458.50 155.50 Z" fill="#ffe162" fill-rule="nonzero" group-id="2" node-id="79" stroke="none" target-height="174.06789" target-width="122.49518" target-x="336.00482" target-y="114.972275"></path><path d="M 432.49 222.44 L 413.49 265.01 C 408.57 276.09 398.93 284.38 387.23 287.58 L 356.23 194.58 L 376.23 149.64 Z" fill="#edca35" fill-rule="nonzero" group-id="2" node-id="81" stroke="none" target-height="137.93999" target-width="76.25998" target-x="356.23" target-y="149.64"></path><path d="M 425.90 415.00 C 405.02 423.01 381.59 412.58 373.58 391.70 L 372.00 387.61 L 331.20 281.31 L 291.14 176.84 C 285.69 163.27 287.98 147.82 297.12 136.41 C 306.27 125.01 320.85 119.41 335.28 121.78 C 349.71 124.15 361.74 134.11 366.76 147.84 L 449.20 362.64 C 453.06 372.67 452.77 383.83 448.40 393.65 C 444.03 403.47 435.94 411.15 425.90 415.00 Z" fill="#ffe162" fill-rule="nonzero" group-id="2" node-id="83" stroke="none" target-height="296.39075" target-width="163.65097" target-x="288.23724" target-y="121.28545"></path><path d="M 419.56 365.00 C 411.44 383.22 391.26 392.82 372.00 387.61 L 331.20 281.31 L 399.00 311.51 C 408.82 315.87 416.51 323.96 420.37 333.99 C 424.22 344.03 423.93 355.18 419.56 365.00 Z" fill="#edca35" fill-rule="nonzero" group-id="2" node-id="85" stroke="none" target-height="107.70416" target-width="91.84894" target-x="331.2" target-y="281.31"></path><path d="M 250.82 270.94 L 250.82 270.94 L 252.74 267.19 L 254.93 263.77 L 257.39 260.66 L 260.14 257.83 L 263.17 255.28 L 266.36 253.06 L 269.74 251.18 L 273.31 249.61 L 277.01 248.38 L 280.78 247.53 L 284.64 247.04 L 288.60 246.92 L 292.53 247.18 L 296.45 247.84 L 300.36 248.92 L 304.30 250.42 L 397.37 291.88 L 401.12 293.80 L 404.54 295.99 L 407.65 298.45 L 410.47 301.20 L 413.03 304.23 L 415.25 307.43 L 417.13 310.80 L 418.70 314.37 L 419.92 318.07 L 420.78 321.85 L 421.27 325.70 L 421.39 329.66 L 421.13 333.60 L 420.47 337.51 L 419.39 341.42 L 417.89 345.36 L 417.89 345.36 L 415.97 349.11 L 413.78 352.53 L 411.31 355.64 L 408.56 358.46 L 405.54 361.02 L 402.34 363.23 L 398.97 365.12 L 395.40 366.69 L 391.69 367.91 L 387.92 368.77 L 384.07 369.26 L 380.11 369.38 L 376.17 369.12 L 372.26 368.46 L 368.34 367.38 L 364.41 365.87 L 271.34 324.42 L 267.59 322.50 L 264.17 320.31 L 261.06 317.84 L 258.23 315.09 L 255.67 312.07 L 253.46 308.87 L 251.57 305.50 L 250.00 301.93 L 248.78 298.22 L 247.93 294.45 L 247.44 290.60 L 247.31 286.64 L 247.57 282.70 L 248.24 278.79 L 249.31 274.87 L 250.82 270.94 Z" fill="#ffe162" fill-rule="nonzero" group-id="2" node-id="87" stroke-linecap="butt" stroke-width="1" target-height="122.464386" target-width="174.0797" target-x="247.31288" target-y="246.91669"></path><path d="M 839.97 285.60 L 839.97 285.60 L 836.03 287.10 L 832.12 288.18 L 828.20 288.84 L 824.27 289.10 L 820.31 288.98 L 816.45 288.49 L 812.68 287.64 L 808.98 286.41 L 805.41 284.85 L 802.03 282.96 L 798.84 280.74 L 795.81 278.19 L 793.06 275.36 L 790.60 272.25 L 788.41 268.83 L 786.49 265.08 L 745.03 172.01 L 743.53 168.07 L 742.45 164.16 L 741.79 160.24 L 741.52 156.31 L 741.65 152.35 L 742.14 148.49 L 742.99 144.72 L 744.21 141.02 L 745.78 137.45 L 747.67 134.08 L 749.89 130.88 L 752.44 127.85 L 755.27 125.10 L 758.38 122.64 L 761.80 120.45 L 765.55 118.53 L 765.55 118.53 L 769.48 117.03 L 773.40 115.95 L 777.31 115.29 L 781.24 115.02 L 785.20 115.15 L 789.06 115.64 L 792.83 116.49 L 796.53 117.72 L 800.10 119.28 L 803.48 121.17 L 806.67 123.39 L 809.70 125.94 L 812.45 128.77 L 814.92 131.88 L 817.11 135.30 L 819.02 139.05 L 860.48 232.12 L 861.99 236.05 L 863.06 239.97 L 863.73 243.88 L 863.99 247.82 L 863.86 251.78 L 863.37 255.63 L 862.52 259.41 L 861.30 263.11 L 859.73 266.68 L 857.84 270.05 L 855.63 273.25 L 853.07 276.28 L 850.25 279.02 L 847.13 281.49 L 843.71 283.68 L 839.97 285.60 Z" fill="#ffe162" fill-rule="nonzero" group-id="2" node-id="89" stroke-linecap="butt" stroke-width="1" target-height="174.07967" target-width="122.46448" target-x="741.5243" target-y="115.02467"></path><path d="M 767.51 222.44 L 786.51 265.01 C 791.43 276.09 801.07 284.38 812.77 287.58 L 843.77 194.58 L 823.77 149.64 Z" fill="#edca35" fill-rule="nonzero" group-id="2" node-id="91" stroke="none" target-height="137.93999" target-width="76.26001" target-x="767.51" target-y="149.64"></path><path d="M 774.07 415.02 L 774.07 415.02 L 770.22 413.30 L 766.69 411.30 L 763.46 409.00 L 760.49 406.40 L 757.78 403.51 L 755.40 400.44 L 753.33 397.17 L 751.58 393.68 L 750.16 390.05 L 749.11 386.33 L 748.42 382.50 L 748.09 378.56 L 748.14 374.61 L 748.60 370.67 L 749.47 366.70 L 750.76 362.70 L 833.19 147.87 L 834.90 144.02 L 836.91 140.49 L 839.21 137.25 L 841.80 134.29 L 844.69 131.58 L 847.77 129.20 L 851.04 127.13 L 854.52 125.38 L 858.15 123.96 L 861.87 122.91 L 865.70 122.22 L 869.65 121.89 L 873.59 121.94 L 877.53 122.40 L 881.50 123.27 L 885.51 124.56 L 885.51 124.56 L 889.35 126.28 L 892.88 128.28 L 896.12 130.58 L 899.08 133.18 L 901.80 136.07 L 904.18 139.14 L 906.24 142.41 L 907.99 145.89 L 909.41 149.53 L 910.46 153.25 L 911.15 157.08 L 911.49 161.02 L 911.43 164.96 L 910.98 168.91 L 910.11 172.88 L 908.81 176.88 L 826.39 391.71 L 824.67 395.56 L 822.67 399.09 L 820.37 402.33 L 817.77 405.29 L 814.88 408.00 L 811.81 410.38 L 808.54 412.45 L 805.06 414.20 L 801.42 415.62 L 797.70 416.67 L 793.88 417.36 L 789.93 417.69 L 785.99 417.64 L 782.04 417.18 L 778.08 416.31 L 774.07 415.02 Z" fill="#ffe162" fill-rule="nonzero" group-id="2" node-id="93" stroke-linecap="butt" stroke-width="1" target-height="295.8071" target-width="163.39886" target-x="748.0879" target-y="121.88635"></path><path d="M 780.44 365.00 C 788.56 383.22 808.74 392.82 828.00 387.61 L 868.80 281.31 L 801.00 311.51 C 791.18 315.87 783.49 323.96 779.63 333.99 C 775.78 344.03 776.07 355.18 780.44 365.00 Z" fill="#edca35" fill-rule="nonzero" group-id="2" node-id="95" stroke="none" target-height="107.70416" target-width="91.84894" target-x="776.95105" target-y="281.31"></path><path d="M 782.06 345.32 L 782.06 345.32 L 780.56 341.39 L 779.48 337.47 L 778.82 333.56 L 778.56 329.62 L 778.68 325.66 L 779.17 321.81 L 780.03 318.04 L 781.25 314.33 L 782.82 310.76 L 784.70 307.39 L 786.92 304.19 L 789.48 301.17 L 792.30 298.42 L 795.41 295.95 L 798.83 293.76 L 802.58 291.85 L 895.66 250.39 L 899.59 248.88 L 903.50 247.80 L 907.42 247.14 L 911.35 246.88 L 915.31 247.00 L 919.17 247.49 L 922.94 248.35 L 926.64 249.57 L 930.21 251.14 L 933.59 253.03 L 936.78 255.24 L 939.81 257.80 L 942.56 260.62 L 945.02 263.73 L 947.21 267.15 L 949.13 270.90 L 949.13 270.90 L 950.64 274.84 L 951.71 278.75 L 952.38 282.67 L 952.64 286.60 L 952.51 290.56 L 952.02 294.42 L 951.17 298.19 L 949.95 301.89 L 948.38 305.46 L 946.49 308.83 L 944.28 312.03 L 941.72 315.06 L 938.89 317.81 L 935.78 320.27 L 932.36 322.46 L 928.61 324.38 L 835.54 365.84 L 831.61 367.34 L 827.69 368.42 L 823.78 369.08 L 819.84 369.34 L 815.88 369.22 L 812.03 368.73 L 808.26 367.88 L 804.55 366.65 L 800.98 365.09 L 797.61 363.20 L 794.41 360.98 L 791.39 358.43 L 788.64 355.60 L 786.17 352.49 L 783.98 349.07 L 782.06 345.32 Z" fill="#ffe162" fill-rule="nonzero" group-id="2" node-id="97" stroke-linecap="butt" stroke-width="1" target-height="122.46442" target-width="174.07965" target-x="778.5576" target-y="246.87958"></path><path d="M 729.55 799.30 C 729.55 830.59 708.78 858.08 678.67 866.63 C 648.57 875.18 616.45 862.71 600.00 836.09 C 582.84 863.88 548.74 876.12 517.83 865.57 C 486.92 855.02 467.41 824.50 470.82 792.01 C 474.23 759.53 499.65 733.72 532.08 729.82 C 536.06 714.99 544.76 701.86 556.87 692.41 C 575.46 677.90 600.10 673.70 622.44 681.23 C 644.79 688.76 661.86 707.02 667.87 729.82 C 703.05 734.03 729.54 763.87 729.55 799.30 Z" fill="#edca35" fill-rule="nonzero" group-id="2" node-id="99" stroke="none" target-height="191.76605" target-width="259.0982" target-x="470.45178" target-y="677.55536"></path><path d="M 713.88 799.30 C 713.89 830.60 693.11 858.10 663.00 866.65 C 632.89 875.20 600.77 862.72 584.32 836.09 C 573.02 854.37 553.96 866.46 532.60 868.86 C 497.41 864.77 470.82 835.02 470.69 799.59 C 470.56 764.16 496.92 734.22 532.08 729.86 C 536.06 715.03 544.76 701.90 556.87 692.45 C 567.07 684.46 579.29 679.45 592.16 678.00 C 620.93 681.34 644.74 701.89 652.25 729.86 C 687.40 734.09 713.85 763.90 713.88 799.30 Z" fill="#ffe162" fill-rule="nonzero" group-id="2" node-id="101" stroke="none" target-height="191.29285" target-width="243.19199" target-x="470.68802" target-y="678"></path><path d="M 574.73 810.25 C 574.73 825.97 561.99 838.71 546.27 838.71 C 530.55 838.71 517.81 825.97 517.81 810.25 C 517.81 794.53 530.55 781.79 546.27 781.79 C 561.99 781.79 574.73 794.53 574.73 810.25 Z" fill="#282828" fill-rule="nonzero" group-id="2" node-id="103" stroke="none" target-height="56.920044" target-width="56.919983" target-x="517.81" target-y="781.79"></path><path d="M 682.19 810.25 C 682.19 825.97 669.45 838.71 653.73 838.71 C 638.01 838.71 625.27 825.97 625.27 810.25 C 625.27 794.53 638.01 781.79 653.73 781.79 C 669.45 781.79 682.19 794.53 682.19 810.25 Z" fill="#282828" fill-rule="nonzero" group-id="2" node-id="105" stroke="none" target-height="56.920044" target-width="56.919983" target-x="625.27" target-y="781.79"></path><path d="M 370.33 314.92 C 369.08 314.92 367.84 314.66 366.70 314.15 L 287.27 279.15 C 284.30 277.87 282.24 275.10 281.87 271.88 C 281.51 268.67 282.91 265.50 285.53 263.60 C 288.14 261.70 291.58 261.35 294.53 262.68 L 373.96 297.68 C 377.86 299.39 380.02 303.61 379.15 307.77 C 378.27 311.94 374.59 314.92 370.33 314.92 Z" fill="#ffefab" fill-rule="nonzero" group-id="2" node-id="107" stroke="none" target-height="52.99417" target-width="97.45703" target-x="281.87488" target-y="261.92584"></path><path d="M 372.53 247.45 C 368.82 247.45 365.50 245.17 364.15 241.72 L 330.83 156.64 C 329.10 152.03 331.40 146.89 335.98 145.10 C 340.56 143.31 345.73 145.53 347.59 150.08 L 380.91 235.16 C 382.72 239.79 380.44 245.01 375.81 246.82 C 374.77 247.24 373.65 247.45 372.53 247.45 Z" fill="#ffefab" fill-rule="nonzero" group-id="2" node-id="109" stroke="none" target-height="102.92087" target-width="51.19229" target-x="330.29205" target-y="144.52913"></path><path d="M 829.67 314.92 C 825.40 314.94 821.71 311.97 820.82 307.79 C 819.93 303.62 822.09 299.40 826.00 297.68 L 905.43 262.68 C 908.38 261.35 911.82 261.70 914.43 263.60 C 917.05 265.50 918.45 268.67 918.09 271.88 C 917.72 275.10 915.66 277.87 912.69 279.15 L 833.26 314.15 C 832.13 314.65 830.91 314.91 829.67 314.92 Z" fill="#ffefab" fill-rule="nonzero" group-id="2" node-id="111" stroke="none" target-height="52.99417" target-width="97.45776" target-x="820.6273" target-y="261.92584"></path><path d="M 827.47 247.45 C 826.35 247.45 825.23 247.24 824.19 246.82 C 819.56 245.01 817.28 239.79 819.09 235.16 L 852.41 150.08 C 853.55 147.04 856.24 144.85 859.45 144.35 C 862.65 143.84 865.88 145.11 867.90 147.65 C 869.91 150.20 870.40 153.63 869.17 156.64 L 835.85 241.72 C 834.50 245.17 831.18 247.45 827.47 247.45 Z" fill="#ffefab" fill-rule="nonzero" group-id="2" node-id="113" stroke="none" target-height="103.15587" target-width="51.257507" target-x="818.5156" target-y="144.29413"></path><path d="M 760.43 166.62 C 755.46 166.62 751.43 162.59 751.43 157.62 C 751.45 140.20 765.58 126.09 783.00 126.08 C 787.97 126.08 792.00 130.11 792.00 135.08 C 792.00 140.05 787.97 144.08 783.00 144.08 C 775.52 144.09 769.46 150.14 769.45 157.62 C 769.45 160.01 768.50 162.30 766.81 163.99 C 765.11 165.68 762.82 166.63 760.43 166.62 Z" fill="#ffefab" fill-rule="nonzero" group-id="2" node-id="115" stroke="none" target-height="40.539993" target-width="40.570007" target-x="751.43" target-y="126.08"></path><path d="M 559.41 732.94 C 556.10 732.94 553.41 730.25 553.41 726.94 C 553.43 711.17 566.23 698.39 582.00 698.40 C 585.31 698.40 588.00 701.09 588.00 704.40 C 588.00 707.71 585.31 710.40 582.00 710.40 C 572.87 710.41 565.47 717.81 565.46 726.94 C 565.46 728.54 564.82 730.07 563.69 731.20 C 562.55 732.33 561.01 732.95 559.41 732.94 Z" fill="#ffefab" fill-rule="nonzero" group-id="2" node-id="117" stroke="none" target-height="34.539978" target-width="34.590027" target-x="553.41" target-y="698.4"></path><path d="M 495.80 787.79 C 492.49 787.79 489.80 785.10 489.80 781.79 C 489.82 766.03 502.59 753.27 518.35 753.25 C 521.66 753.25 524.35 755.94 524.35 759.25 C 524.35 762.56 521.66 765.25 518.35 765.25 C 509.22 765.26 501.81 772.66 501.80 781.79 C 501.80 785.10 499.11 787.79 495.80 787.79 Z" fill="#ffefab" fill-rule="nonzero" group-id="2" node-id="119" stroke="none" target-height="34.539978" target-width="34.549988" target-x="489.8" target-y="753.25"></path><path d="M 439.57 166.62 C 434.60 166.62 430.57 162.59 430.57 157.62 C 430.56 150.13 424.49 144.07 417.00 144.08 C 412.03 144.08 408.00 140.05 408.00 135.08 C 408.00 130.11 412.03 126.08 417.00 126.08 C 434.41 126.10 448.53 140.21 448.55 157.62 C 448.55 162.58 444.53 166.61 439.57 166.62 Z" fill="#ffefab" fill-rule="nonzero" group-id="2" node-id="121" stroke="none" target-height="40.539993" target-width="40.549988" target-x="408" target-y="126.08"></path><path d="M 318.31 623.12 C 308.37 623.12 300.31 615.06 300.31 605.12 L 300.31 602.87 C 300.31 592.93 308.37 584.87 318.31 584.87 C 328.25 584.87 336.31 592.93 336.31 602.87 L 336.31 605.12 C 336.31 615.06 328.25 623.12 318.31 623.12 Z" fill="#38f9f4" fill-rule="nonzero" group-id="2" node-id="123" stroke="none" target-height="38.25" target-width="36" target-x="300.31" target-y="584.87"></path><path d="M 700.05 1141.52 C 690.11 1141.52 682.05 1133.46 682.05 1123.52 L 682.05 910.07 C 682.05 900.13 690.11 892.07 700.05 892.07 C 709.99 892.07 718.05 900.13 718.05 910.07 L 718.05 1123.52 C 718.05 1133.46 709.99 1141.52 700.05 1141.52 Z" fill="#06bcb7" fill-rule="nonzero" group-id="2" node-id="125" stroke="none" target-height="249.45001" target-width="36" target-x="682.05" target-y="892.07"></path><path d="M 791.54 1173.15 C 781.60 1173.15 773.54 1165.09 773.54 1155.15 L 773.54 1094.15 C 773.54 1084.21 781.60 1076.15 791.54 1076.15 C 801.48 1076.15 809.54 1084.21 809.54 1094.15 L 809.54 1155.15 C 809.54 1165.09 801.48 1173.15 791.54 1173.15 Z" fill="#06bcb7" fill-rule="nonzero" group-id="2" node-id="127" stroke="none" target-height="97" target-width="36" target-x="773.54" target-y="1076.15"></path><path d="M 487.73 1101.18 C 475.58 1101.18 465.73 1091.33 465.73 1079.18 L 465.73 972.18 C 465.73 960.03 475.58 950.18 487.73 950.18 C 499.88 950.18 509.73 960.03 509.73 972.18 L 509.73 1079.18 C 509.73 1091.33 499.88 1101.18 487.73 1101.18 Z" fill="#38f9f4" fill-rule="nonzero" group-id="2" node-id="129" stroke="none" target-height="151.00006" target-width="44" target-x="465.73" target-y="950.18"></path><path d="M 408.67 1152.30 C 396.52 1152.30 386.67 1142.45 386.67 1130.30 L 386.67 1104.30 C 386.67 1092.15 396.52 1082.30 408.67 1082.30 C 420.82 1082.30 430.67 1092.15 430.67 1104.30 L 430.67 1130.30 C 430.67 1142.45 420.82 1152.30 408.67 1152.30 Z" fill="#38f9f4" fill-rule="nonzero" group-id="2" node-id="131" stroke="none" target-height="70" target-width="44" target-x="386.67" target-y="1082.3"></path></g></svg>